<?xml version="1.0" standalone="no"?>
<!DOCTYPE svg PUBLIC "-//W3C//DTD SVG 20010904//EN"
 "http://www.w3.org/TR/2001/REC-SVG-20010904/DTD/svg10.dtd">
<svg version="1.0" xmlns="http://www.w3.org/2000/svg"
 width="3840" height="1127" viewBox="0 0 8000.000000 2348.000000"
 preserveAspectRatio="xMidYMid meet">
<metadata>
Created by potrace 1.16, written by Peter Selinger 2001-2019
</metadata>
<rect x="0" y="0" width="8000.0" height="2348.0" fill="#0B1D3A"/>
<g transform="translate(0.000000,2348.000000) scale(0.100000,-0.100000)"
fill="#FFFFFF" stroke="none">
<path d="M20572 14458 l-12 -12 0 -777 0 -777 -65 -4 c-35 -2 -68 -7 -72 -12
l-8 -8 -5 -286 -5 -287 -15 0 -15 0 -94 105 c-52 58 -117 127 -144 154 -51 52
-77 85 -77 98 0 4 20 30 46 59 l45 51 -3 13 c-2 8 -52 65 -113 127 -60 63
-134 141 -164 173 -30 33 -109 117 -175 186 -67 69 -145 152 -175 185 -30 32
-137 144 -238 248 l-184 189 -18 -9 c-10 -5 -37 -31 -60 -57 l-41 -48 9 -18
c11 -20 38 -48 267 -281 89 -91 178 -185 199 -210 21 -25 113 -124 205 -220
92 -96 183 -193 201 -215 19 -22 64 -68 99 -102 l65 -62 -15 -25 c-8 -13 -28
-40 -44 -60 l-28 -36 15 -22 c19 -28 65 -78 221 -238 68 -69 128 -135 134
-146 l11 -21 -11 -11 -12 -12 -228 0 -227 0 -11 19 -10 20 0 55 0 55 -19 11
-20 10 -720 0 -720 0 -15 -16 -16 -15 0 -59 0 -59 16 -15 15 -16 723 0 722 0
12 -12 12 -12 0 -41 0 -41 16 -22 15 -22 150 0 150 0 5 -15 6 -15 -15 -23 c-8
-12 -56 -65 -106 -117 -49 -52 -90 -100 -91 -105 0 -6 18 -32 40 -59 22 -26
40 -53 40 -58 0 -10 -140 -161 -211 -228 -20 -19 -81 -84 -135 -145 -54 -60
-161 -175 -239 -255 -78 -80 -212 -217 -298 -306 l-157 -161 0 -14 c0 -8 18
-35 41 -61 l41 -48 25 0 26 0 126 132 c69 73 196 205 282 293 86 88 178 185
204 215 26 30 130 139 231 243 l184 187 0 24 0 23 -34 37 c-19 20 -37 45 -41
56 l-6 20 8 14 c4 8 77 84 161 170 l152 156 15 0 15 0 0 -284 0 -284 17 -13
16 -14 51 2 51 1 7 -11 8 -12 0 -766 0 -767 13 -10 12 -10 60 0 60 0 13 10 12
10 0 779 0 778 -18 10 -18 10 -57 -2 c-31 0 -58 1 -61 4 -3 2 -5 115 -6 249
-1 135 -1 251 -1 258 2 24 28 11 66 -33 22 -25 110 -118 196 -207 l156 -162
30 13 c17 7 41 23 54 37 12 13 27 24 32 24 11 0 407 -404 591 -602 64 -70 120
-128 124 -130 4 -2 77 -77 161 -167 85 -90 165 -168 178 -174 l23 -10 50 54
c27 30 50 58 50 62 0 9 -300 328 -401 427 -31 30 -116 120 -188 200 -73 80
-170 181 -215 225 -45 44 -118 119 -164 168 -45 48 -88 87 -94 87 -7 0 -33
-21 -59 -46 l-47 -46 -21 7 -21 6 -63 72 c-35 40 -103 114 -153 166 l-89 94 0
16 0 16 267 1 c146 1 271 5 277 9 l11 6 0 44 c0 24 4 55 10 69 l10 26 740 0
740 0 10 26 c13 33 13 110 0 135 l-11 19 -738 0 -739 0 -10 -13 -11 -13 -3
-69 -3 -70 -353 -3 -353 -2 -5 15 -6 14 119 128 c170 183 376 393 385 393 4 0
24 -18 44 -40 l37 -40 22 -6 22 -5 148 148 c82 81 171 173 199 203 80 88 378
401 549 576 86 88 157 165 157 171 0 6 -22 34 -49 63 l-49 53 -24 -6 -25 -7
-138 -147 c-253 -271 -797 -836 -852 -887 l-42 -38 -43 36 -42 36 -20 0 -21 0
-190 -197 c-104 -109 -195 -199 -202 -201 l-12 -3 -3 233 c-2 128 -1 247 2
263 l6 30 64 3 64 3 13 11 13 10 0 772 0 772 -12 12 -12 12 -61 0 -61 0 -12
-12z"/>
<path d="M58243 13126 l-91 -13 -88 -44 -89 -44 -60 -60 -60 -60 -43 -82 -43
-83 -15 -82 c-9 -46 -18 -103 -21 -128 l-4 -45 20 -103 20 -102 28 -52 c34
-63 120 -158 179 -198 61 -41 196 -98 268 -114 106 -24 349 -86 396 -101 25
-8 53 -15 63 -15 20 0 50 -12 163 -66 l72 -34 50 -47 49 -48 23 -60 23 -60 -1
-100 0 -100 -20 -53 c-29 -76 -66 -135 -106 -170 -19 -17 -55 -42 -79 -56 -24
-15 -77 -38 -118 -51 l-74 -25 -115 -6 -115 -6 -60 11 c-33 5 -85 17 -115 25
-56 16 -171 72 -224 109 l-28 20 -25 56 c-13 31 -46 101 -73 156 -26 55 -67
139 -90 187 l-42 87 -21 7 -20 6 -14 -18 -13 -18 0 -321 0 -321 12 -12 c7 -7
22 -12 34 -12 l22 0 108 55 c60 30 115 55 122 55 8 0 26 -9 41 -19 42 -31 200
-88 291 -107 l83 -16 131 5 131 5 81 26 81 26 62 40 c35 23 85 63 111 91 l48
50 36 69 c20 37 46 99 57 136 l21 69 0 152 -1 153 -21 76 c-12 41 -36 102 -53
136 l-32 60 -45 44 c-25 24 -65 56 -90 72 -47 30 -175 82 -200 82 -14 0 -53
10 -215 55 -27 8 -111 31 -185 50 -74 20 -162 45 -195 57 -33 11 -81 32 -106
47 -25 14 -65 43 -88 64 l-43 38 -24 52 -24 52 0 100 0 100 31 62 31 63 55 50
c30 27 77 61 104 75 55 27 141 49 235 60 l61 7 114 -17 114 -16 72 -24 c40
-13 85 -31 100 -39 l28 -14 90 -184 90 -183 23 -3 23 -4 15 12 14 12 0 247 0
247 -12 12 -12 12 -32 0 -32 0 -83 -42 -83 -41 -30 12 c-17 7 -67 23 -111 35
l-80 23 -85 7 c-47 3 -107 8 -135 11 l-50 4 -92 -13z"/>
<path d="M29230 13110 c-11 -11 -20 -25 -20 -32 0 -13 -52 -149 -81 -214 -11
-23 -19 -45 -19 -50 0 -5 -16 -49 -36 -99 -19 -49 -45 -115 -56 -145 -12 -30
-29 -74 -39 -97 -11 -23 -19 -48 -19 -55 0 -7 -9 -28 -20 -46 -11 -18 -20 -39
-20 -48 0 -8 -14 -47 -31 -87 -17 -40 -39 -94 -49 -122 -10 -27 -27 -75 -39
-105 -12 -30 -28 -71 -35 -90 -7 -19 -34 -91 -60 -160 -26 -69 -58 -152 -70
-185 -13 -33 -37 -96 -54 -140 -17 -44 -42 -113 -56 -153 -14 -40 -33 -86 -41
-102 -8 -16 -15 -37 -15 -48 l0 -18 -32 -31 -33 -31 -34 -7 c-19 -4 -48 -16
-65 -26 -17 -10 -39 -19 -48 -19 -10 0 -32 -13 -50 -29 l-33 -30 18 -18 18
-18 257 -1 c141 -1 265 0 275 3 l17 4 0 24 0 24 -27 18 c-37 25 -100 55 -143
68 l-35 11 -8 24 -9 25 45 115 c24 63 70 181 101 262 l57 146 15 6 c9 3 163 6
342 5 l327 0 18 -8 19 -7 50 -139 c61 -169 95 -260 114 -302 8 -17 14 -35 14
-39 0 -5 10 -32 21 -60 l22 -52 -6 -15 -5 -14 -64 -12 c-34 -7 -78 -17 -95
-22 l-33 -11 0 -18 c0 -10 6 -22 13 -27 l12 -7 367 -2 367 -2 18 14 18 13 -11
18 -11 18 -94 18 c-52 10 -105 21 -118 25 l-24 7 -79 230 c-43 127 -101 298
-129 380 -28 83 -57 164 -64 180 -8 17 -28 71 -44 120 -17 50 -42 122 -57 160
-14 39 -32 90 -40 115 -8 25 -17 52 -21 60 -15 36 -45 119 -57 160 -7 25 -34
104 -60 175 -26 72 -58 166 -72 210 -15 44 -41 118 -59 165 -18 47 -35 97 -39
112 l-6 27 -20 11 -20 10 -20 -20z m-79 -550 c4 -19 17 -64 29 -100 61 -175
73 -212 105 -310 19 -58 57 -170 84 -250 28 -80 51 -153 51 -162 0 -9 -5 -20
-11 -23 -5 -4 -146 -7 -311 -6 l-301 0 -8 8 -8 8 19 60 c11 33 31 92 45 130
15 39 30 82 34 96 5 14 16 39 25 57 9 17 16 39 16 49 0 10 9 35 20 56 11 20
20 42 20 48 0 6 7 25 15 42 8 18 21 50 29 72 69 191 87 239 97 252 l12 14 16
-3 16 -3 6 -35z"/>
<path d="M38126 13114 c-9 -8 -16 -24 -16 -34 0 -11 -9 -39 -19 -62 -11 -24
-36 -86 -56 -138 -20 -52 -45 -114 -56 -138 -10 -23 -19 -48 -19 -54 0 -6 -8
-29 -19 -52 -10 -23 -37 -88 -59 -146 -41 -108 -105 -272 -160 -416 -29 -74
-55 -141 -179 -469 -81 -216 -104 -280 -114 -310 -5 -16 -15 -43 -23 -60 -8
-16 -22 -50 -31 -75 -30 -80 -18 -69 -163 -139 -23 -12 -49 -21 -57 -21 -19 0
-75 -49 -75 -65 0 -8 5 -17 12 -21 l12 -8 256 -2 255 -1 23 13 c12 8 22 20 22
28 0 7 -8 20 -17 28 -10 9 -56 32 -103 53 -47 20 -88 42 -92 48 -12 19 -9 51
6 83 12 23 96 236 170 433 7 18 19 37 27 42 l14 9 335 0 335 0 12 -8 c10 -6
86 -202 127 -327 9 -27 21 -59 26 -70 5 -11 17 -40 26 -65 33 -93 46 -141 41
-154 l-5 -13 -82 -16 c-46 -9 -89 -22 -96 -28 -8 -6 -14 -17 -14 -25 0 -7 8
-17 18 -22 l17 -8 374 0 374 1 11 17 11 18 -15 15 -15 15 -90 15 c-50 9 -101
19 -114 23 l-24 7 -54 155 c-30 85 -60 173 -68 195 -7 22 -32 92 -55 155 -23
63 -48 135 -55 160 -8 25 -26 77 -40 115 -15 39 -33 88 -41 110 -8 22 -19 49
-24 60 -5 11 -12 31 -15 45 -7 27 -81 242 -95 275 -9 20 -103 296 -190 555
-27 80 -60 174 -73 208 -21 57 -39 81 -59 82 -4 0 -14 -7 -22 -16z m-85 -530
c4 -16 12 -42 18 -59 35 -94 254 -754 258 -776 l5 -27 -13 -8 -13 -8 -299 2
-300 1 -11 11 -10 10 16 47 c9 27 35 98 58 158 23 61 48 128 55 150 8 22 23
65 35 95 12 30 30 78 40 105 10 28 28 75 40 105 12 30 32 85 45 121 13 37 28
76 35 88 l11 22 12 -4 c6 -2 15 -17 18 -33z"/>
<path d="M45827 13117 l-17 -12 -49 -135 c-26 -74 -65 -176 -85 -226 -20 -50
-36 -97 -36 -105 0 -8 -9 -27 -20 -44 -11 -16 -20 -38 -20 -47 0 -10 -9 -37
-19 -60 -10 -24 -29 -70 -41 -103 -13 -33 -29 -73 -36 -90 -7 -16 -20 -48 -27
-70 -8 -22 -31 -83 -52 -135 -20 -52 -47 -122 -60 -155 -12 -33 -45 -118 -73
-190 -46 -118 -126 -327 -190 -495 -13 -36 -31 -87 -39 -113 l-15 -48 -91 -43
c-51 -24 -109 -50 -130 -59 l-38 -17 -6 -16 -6 -17 10 -16 10 -16 259 -1 259
-1 23 8 22 9 0 18 c0 10 -8 26 -18 35 -10 9 -36 23 -57 31 -22 8 -61 24 -87
35 l-48 22 -10 19 -11 20 32 82 c118 312 171 443 182 450 l12 8 336 0 335 0
17 -12 17 -13 19 -55 c29 -85 42 -121 61 -170 10 -25 25 -63 33 -85 8 -22 26
-70 41 -108 14 -37 26 -73 26 -80 0 -7 9 -29 20 -49 l20 -37 -6 -16 -6 -15
-27 -1 c-14 0 -57 -8 -95 -17 l-69 -17 -11 -17 -11 -17 12 -12 12 -12 372 -3
371 -3 19 10 c11 5 19 16 19 23 0 8 -6 19 -13 25 -14 11 -82 27 -170 40 -26 4
-53 13 -59 19 -12 12 -24 44 -109 292 -87 252 -83 240 -145 415 -31 88 -69
196 -86 240 -16 44 -34 98 -39 120 -6 21 -14 44 -18 50 -5 5 -15 33 -24 60 -8
28 -25 75 -37 105 -12 30 -28 75 -36 100 -17 57 -41 127 -72 210 -14 36 -42
117 -63 180 -21 63 -54 160 -73 215 l-35 100 -19 12 -18 13 -17 -13z m-102
-528 c10 -15 265 -767 278 -817 l10 -43 -11 -11 -11 -11 -303 1 -303 0 -10 16
-9 15 21 48 c21 48 27 64 77 198 14 39 42 113 61 165 20 52 45 120 56 150 11
30 27 69 34 87 8 17 26 66 41 110 14 43 31 84 36 91 6 6 14 12 19 12 4 0 11
-5 14 -11z"/>
<path d="M24127 13073 c-12 -11 -8 -41 7 -56 l14 -14 76 -6 77 -7 29 -15 30
-15 2 -966 c2 -531 0 -970 -3 -976 l-6 -10 -106 -18 c-59 -10 -111 -21 -117
-25 -14 -9 -13 -41 3 -52 l12 -10 475 -2 475 -2 120 12 120 11 70 19 c78 22
172 56 195 70 8 5 28 16 45 25 41 23 122 101 155 149 15 22 38 67 51 100 l23
60 0 145 1 145 -28 64 c-45 102 -85 153 -165 213 l-53 39 -97 39 c-53 21 -119
41 -147 45 -55 8 -85 21 -85 35 0 5 12 13 28 16 15 4 72 28 127 55 l100 47 51
49 c28 26 63 66 77 89 14 22 35 71 46 108 l21 68 0 81 0 81 -22 65 c-12 36
-32 82 -44 101 -12 19 -39 53 -60 74 l-38 39 -96 45 -95 46 -140 23 -140 23
-491 0 -491 0 -6 -7z m986 -89 c40 -9 85 -23 101 -31 15 -8 48 -33 73 -56 l45
-41 29 -59 30 -59 10 -81 9 -82 -6 -85 -5 -85 -21 -50 c-38 -92 -43 -100 -95
-153 l-53 -53 -57 -27 -58 -27 -214 -3 -213 -4 -9 9 -9 9 -1 437 c0 240 3 441
6 447 l6 10 180 0 180 0 72 -16z m36 -984 l94 -10 60 -23 60 -22 62 -60 62
-60 34 -70 34 -70 0 -170 0 -170 -23 -62 -22 -62 -42 -61 c-23 -34 -49 -65
-59 -71 -10 -5 -23 -15 -31 -22 -7 -7 -31 -23 -53 -36 -39 -24 -56 -28 -180
-49 l-60 -11 -195 2 -195 2 -12 8 -13 8 0 500 0 500 23 9 22 9 170 0 c94 0
212 -4 264 -9z"/>
<path d="M26260 13065 l-13 -16 20 -20 20 -20 65 -9 c35 -5 82 -15 104 -22
l39 -13 3 -977 2 -978 -22 -4 c-13 -3 -54 -10 -93 -16 -75 -13 -135 -34 -135
-49 0 -5 7 -15 16 -22 l16 -13 367 -2 366 -1 23 8 23 9 -3 16 c-2 9 -10 20
-18 24 -28 14 -148 40 -183 40 l-35 0 -10 13 -11 13 0 450 1 450 8 14 9 15
158 -3 158 -3 58 -21 59 -21 53 -49 c30 -27 61 -64 70 -81 32 -62 65 -160 65
-191 0 -17 9 -73 20 -125 11 -52 20 -112 20 -135 0 -23 11 -90 24 -151 l23
-110 20 -40 c12 -22 34 -52 50 -66 15 -15 48 -37 73 -50 l45 -22 115 -1 115
-1 60 29 60 30 48 44 47 45 0 23 0 24 -28 0 -29 0 -16 -18 c-9 -10 -37 -29
-63 -41 l-46 -23 -31 6 c-17 3 -41 16 -54 28 l-22 21 -15 46 c-15 47 -50 247
-62 356 -3 33 -13 83 -21 110 -8 28 -28 79 -45 114 l-31 64 -56 58 -57 57 -57
31 c-32 17 -63 31 -70 31 -6 1 -30 9 -52 20 -22 11 -48 19 -57 20 l-18 0 0 15
c0 8 3 15 8 15 4 0 32 4 64 9 70 12 179 55 238 94 25 16 63 49 85 72 22 23 55
69 72 101 17 32 36 83 42 112 14 68 14 201 0 278 -11 60 -20 81 -71 165 l-28
46 -58 45 c-31 25 -75 54 -97 65 -57 28 -156 59 -255 79 l-85 18 -486 4 -486
3 -13 -16z m971 -88 c98 -32 162 -76 212 -146 l34 -46 21 -68 22 -67 0 -121 0
-120 -21 -83 -21 -84 -37 -53 -37 -54 -53 -36 -54 -36 -71 -17 -71 -16 -167 0
-167 0 -10 18 -10 18 0 452 c0 248 2 459 6 468 l6 17 186 -6 186 -5 46 -15z"/>
<path d="M30459 13064 l-13 -16 10 -16 c11 -18 52 -40 165 -91 l66 -30 7 -16
c3 -9 6 -418 6 -909 l0 -893 -17 -16 c-10 -8 -62 -35 -116 -58 l-98 -43 -6
-24 -6 -25 16 -12 16 -11 263 1 c145 1 266 3 271 4 4 0 7 12 7 24 l0 24 -17
16 c-10 8 -36 22 -58 30 -22 8 -65 25 -95 36 l-55 22 -17 20 -18 21 0 816 0
817 10 15 10 15 31 -35 c17 -19 60 -78 96 -130 36 -52 83 -117 103 -145 36
-48 143 -199 262 -369 93 -131 125 -176 189 -266 34 -47 77 -110 98 -140 38
-57 98 -142 236 -329 44 -60 97 -133 117 -163 21 -29 73 -102 116 -163 l78
-110 31 -3 32 -3 9 18 10 18 1 975 2 975 7 7 c14 14 104 58 120 59 9 0 40 13
67 28 l50 28 0 29 0 29 -276 3 -276 2 -13 -15 -13 -16 11 -24 c7 -14 16 -25
22 -25 5 0 55 -21 109 -46 l99 -46 6 -22 c3 -11 6 -321 6 -687 l0 -665 -13
-18 -14 -19 -35 44 c-19 24 -62 82 -94 128 -118 168 -132 187 -193 271 -33 47
-131 184 -217 305 -210 294 -440 616 -487 679 -20 28 -48 67 -61 87 -13 20
-32 43 -41 52 l-16 17 -238 0 -239 0 -13 -16z"/>
<path d="M32741 13066 l-11 -14 0 -281 1 -282 24 -9 25 -9 16 6 16 6 24 54
c23 52 71 173 116 293 11 30 26 69 33 85 7 17 17 42 23 58 l12 27 204 0 c112
0 211 -3 220 -6 l16 -6 0 -983 0 -983 -12 -9 c-7 -5 -47 -15 -89 -21 -42 -6
-88 -16 -103 -21 -14 -6 -29 -18 -33 -27 l-6 -15 12 -12 12 -12 367 -1 367 -2
18 9 17 10 0 19 0 18 -33 11 c-18 6 -73 17 -123 24 l-89 13 0 995 0 994 213 3
213 2 16 -9 16 -8 18 -54 c10 -30 29 -83 42 -119 13 -36 37 -99 51 -140 15
-41 33 -88 40 -105 8 -16 18 -42 24 -57 l12 -28 22 -1 c33 -2 52 1 61 10 l8 8
-1 278 -1 279 -11 13 -10 13 -863 0 -863 0 -11 -14z"/>
<path d="M34806 13065 l-15 -16 5 -14 6 -15 37 -8 c20 -5 67 -14 106 -20 l70
-11 12 -17 13 -18 0 -962 0 -962 -12 -9 c-7 -6 -38 -13 -68 -17 -30 -4 -79
-14 -107 -22 l-53 -15 0 -19 0 -19 18 -10 17 -9 365 2 365 1 13 8 c6 5 12 14
12 21 0 8 -6 19 -14 25 -7 6 -51 18 -97 27 -46 8 -94 17 -106 20 l-23 4 0 493
0 492 8 12 8 12 488 2 488 1 9 -9 10 -10 0 -492 c0 -271 -3 -496 -6 -502 -4
-5 -18 -9 -33 -9 -40 0 -175 -30 -189 -42 -16 -13 -17 -34 -2 -44 l12 -7 365
-3 366 -3 18 10 18 10 0 18 0 19 -16 6 c-32 12 -146 36 -174 36 -16 0 -31 4
-34 9 -4 5 -6 447 -6 982 l-1 972 9 9 c5 5 40 14 78 20 38 5 86 14 107 19 l37
10 0 23 0 24 -16 6 c-20 8 -738 8 -758 0 l-16 -6 0 -18 c0 -10 6 -23 14 -29
l13 -11 97 -14 c53 -7 101 -17 107 -23 l10 -10 0 -423 0 -423 -10 -10 -10 -10
-482 1 -482 2 -14 11 -13 11 0 419 0 419 23 14 22 14 84 10 83 10 17 16 16 16
-11 18 -11 17 -376 3 -375 2 -16 -15z"/>
<path d="M39357 13073 c-4 -3 -7 -17 -7 -30 l0 -24 14 -5 c8 -3 56 -11 106
-18 l93 -13 13 -18 14 -19 0 -926 0 -927 -23 -21 c-13 -12 -27 -22 -33 -22 -5
0 -46 -17 -92 -37 l-83 -37 -5 -23 -6 -23 10 -13 11 -13 273 1 273 0 3 23 4
24 -18 19 c-9 10 -21 19 -27 19 -5 0 -50 18 -101 40 -50 23 -97 48 -103 57
l-13 17 0 855 c0 471 3 873 6 894 l7 38 18 -17 18 -16 22 -67 c12 -36 41 -113
64 -171 23 -58 55 -141 70 -185 16 -44 35 -89 42 -100 7 -11 13 -26 13 -35 1
-8 9 -33 20 -55 11 -22 20 -47 20 -55 0 -8 9 -28 20 -45 11 -16 20 -37 20 -45
0 -8 9 -33 20 -55 11 -22 19 -46 20 -52 0 -12 11 -38 61 -149 11 -23 19 -50
19 -61 0 -10 4 -23 10 -29 5 -5 25 -52 44 -104 19 -52 62 -167 96 -255 34 -88
79 -207 100 -265 21 -58 49 -132 62 -164 l23 -59 16 -10 16 -10 17 6 17 7 25
57 c14 32 31 71 39 86 8 16 15 35 15 43 0 8 9 32 19 52 11 20 29 64 41 97 12
33 29 78 40 100 10 22 27 64 39 93 12 28 30 73 40 100 11 26 45 110 75 187 49
128 79 203 241 615 77 194 159 408 180 463 10 26 21 47 25 47 4 0 11 -7 14
-16 3 -9 6 -417 6 -908 l0 -892 -12 -12 -12 -12 -35 0 c-20 0 -67 -8 -105 -18
l-69 -18 -11 -18 -11 -17 19 -14 19 -14 361 1 361 0 18 9 17 10 0 19 0 19 -52
16 c-29 8 -78 18 -108 21 l-55 6 -12 16 -13 16 0 957 0 958 25 19 25 20 63 7
c34 3 77 11 95 16 l32 11 0 23 0 23 -16 6 c-9 3 -127 6 -264 6 l-249 0 -20
-26 c-12 -15 -26 -45 -33 -68 -6 -22 -15 -45 -19 -51 -6 -9 -185 -458 -330
-830 -28 -71 -62 -155 -74 -185 -13 -30 -49 -120 -80 -200 -31 -80 -64 -163
-75 -185 -10 -22 -29 -67 -43 -99 -13 -33 -29 -62 -35 -64 l-12 -4 -11 29
c-24 59 -61 159 -71 193 -5 19 -14 40 -18 45 -5 6 -15 28 -23 50 -68 188 -97
266 -105 282 -5 10 -19 43 -30 73 -81 216 -131 348 -142 369 -13 26 -50 126
-50 135 0 4 -6 22 -14 39 -15 34 -66 159 -98 242 -10 28 -26 64 -33 82 -8 17
-15 36 -15 42 0 9 -22 57 -49 111 l-8 15 -290 3 -289 2 -7 -7z"/>
<path d="M42997 13073 c-12 -11 -7 -41 9 -57 l15 -16 42 0 c58 -1 128 -18 149
-37 l18 -16 0 -964 0 -963 -22 -9 c-13 -5 -57 -15 -98 -21 -41 -6 -85 -16 -97
-21 l-23 -9 0 -19 c0 -10 6 -23 13 -29 l12 -10 364 0 365 -1 18 10 18 10 0 19
0 19 -37 11 c-21 5 -65 15 -98 21 -33 6 -71 14 -85 18 l-25 6 -3 354 -2 354
10 12 10 12 258 6 257 5 90 25 c50 14 104 32 120 41 17 9 34 16 39 16 20 0
114 71 164 124 l53 56 35 73 35 73 15 115 16 114 -6 80 c-4 44 -13 109 -21
144 -9 35 -29 93 -46 128 l-30 63 -55 59 -55 60 -52 29 c-103 58 -190 86 -352
112 l-50 9 -481 0 -481 1 -6 -7z m958 -88 c33 -9 83 -27 112 -41 l51 -25 39
-39 40 -39 33 -62 33 -62 13 -71 14 -71 0 -160 c0 -88 -5 -189 -10 -225 l-9
-66 -22 -49 c-23 -52 -49 -93 -84 -131 -11 -13 -54 -41 -95 -63 l-75 -40 -65
-10 -65 -11 -156 0 -157 0 -11 14 -11 13 0 570 c0 314 3 573 7 577 3 3 86 6
183 6 l176 0 59 -15z"/>
<path d="M47047 13073 c-4 -3 -7 -17 -7 -30 l0 -24 13 -4 c7 -3 54 -12 106
-19 l94 -14 13 -14 14 -13 0 -969 c0 -533 -2 -971 -5 -974 -2 -3 -26 -9 -52
-13 -27 -4 -77 -14 -113 -22 l-65 -14 -3 -17 c-2 -9 1 -22 6 -29 l10 -12 381
0 380 0 13 13 13 13 -11 16 -10 16 -75 18 c-40 10 -88 18 -104 19 l-31 0 -12
12 -12 12 0 449 0 448 10 18 9 18 158 -4 157 -5 45 -15 c25 -8 59 -25 75 -37
16 -11 47 -40 70 -63 l41 -43 21 -52 c40 -100 53 -153 64 -253 6 -55 17 -127
25 -160 8 -33 15 -83 15 -111 l0 -52 30 -82 29 -83 28 -29 c15 -17 51 -42 78
-56 l50 -26 115 -1 115 0 65 32 66 32 47 48 c26 25 47 53 47 60 l0 13 -25 12
-25 11 -28 -25 c-15 -15 -46 -36 -70 -48 l-42 -22 -35 6 -35 7 -24 32 -25 33
-16 66 c-8 37 -27 147 -41 245 l-26 178 -30 79 -30 79 -67 67 c-36 37 -84 78
-106 92 -22 13 -69 35 -105 48 -36 13 -76 27 -89 32 l-24 9 10 10 c6 6 35 14
64 19 59 9 114 28 194 66 l52 24 64 65 c35 36 74 82 86 102 l23 38 16 73 16
74 -5 111 -5 112 -21 61 -22 61 -47 59 -48 59 -54 38 -55 37 -70 26 c-38 14
-108 32 -155 39 -47 8 -105 18 -130 24 l-45 11 -461 0 -461 0 -6 -7z m973
-100 c30 -10 70 -27 88 -36 53 -29 109 -85 141 -141 l29 -51 12 -70 12 -70 -5
-115 c-3 -63 -10 -135 -14 -160 -5 -25 -20 -68 -33 -94 l-23 -49 -53 -53 -53
-53 -81 -25 -81 -26 -173 0 -172 0 -12 12 -12 12 0 466 0 467 8 7 7 8 180 -5
180 -5 55 -19z"/>
<path d="M49112 13068 l-12 -12 0 -277 0 -278 16 -15 c8 -9 21 -16 28 -16 7 0
20 6 29 13 l16 12 81 205 c45 113 85 214 90 225 5 11 12 30 15 42 l6 23 22 5
c12 3 112 4 222 3 l200 -3 3 -992 2 -993 -22 -4 c-13 -3 -65 -12 -116 -22
l-93 -17 -9 -16 -9 -17 8 -13 8 -13 373 -4 372 -4 19 11 19 10 0 19 0 19 -40
11 c-22 5 -57 15 -79 20 -21 6 -54 10 -73 10 l-34 0 -12 12 -12 12 0 976 0
976 12 12 12 12 206 0 205 0 12 -8 c11 -7 33 -63 158 -400 l38 -104 21 -10 22
-9 26 10 26 10 1 277 1 276 -11 19 -10 19 -862 0 -863 0 -12 -12z"/>
<path d="M51177 13073 c-12 -11 -8 -50 6 -60 6 -5 53 -27 102 -48 50 -21 99
-47 110 -57 l20 -19 2 -890 3 -891 -10 -19 -11 -19 -76 -35 c-42 -19 -81 -35
-88 -35 -7 0 -24 -9 -39 -21 l-26 -20 0 -19 c0 -10 6 -22 13 -27 l12 -7 260
-2 260 -1 18 9 17 9 0 18 c0 10 -7 24 -16 32 -17 14 -110 55 -164 72 -19 6
-45 20 -58 31 l-22 20 2 830 3 831 15 0 15 0 47 -70 c27 -38 69 -97 94 -130
25 -33 67 -91 94 -130 27 -38 65 -92 85 -120 36 -49 241 -340 313 -443 20 -30
65 -93 99 -140 34 -48 71 -100 83 -117 12 -16 45 -62 73 -101 89 -122 184
-255 267 -374 44 -63 98 -139 120 -167 l40 -53 29 0 30 0 7 11 6 11 3 976 c1
538 3 982 4 989 l1 12 53 24 c30 13 71 30 92 37 21 7 53 22 72 32 l33 20 0 23
0 23 -16 6 c-9 3 -134 6 -279 6 l-263 0 -12 -15 -13 -16 10 -22 11 -22 100
-43 c55 -24 106 -50 113 -58 l12 -14 -1 -683 c-1 -375 -1 -688 -2 -694 l0 -13
-14 0 -14 0 -65 93 c-36 50 -82 115 -101 142 -50 68 -225 312 -259 360 -16 22
-48 67 -72 100 -52 70 -97 133 -180 255 -72 104 -194 277 -267 378 -29 40 -72
98 -95 130 -23 31 -53 72 -68 90 l-27 32 -242 0 c-134 0 -246 -3 -249 -7z"/>
<path d="M53502 13068 c-7 -7 -12 -17 -12 -24 0 -6 6 -17 14 -23 l14 -11 88
-12 89 -11 18 -15 17 -15 0 -967 0 -968 -12 -9 c-7 -6 -35 -13 -63 -16 -62 -7
-157 -38 -162 -53 -2 -7 3 -18 10 -26 l15 -14 810 -2 811 -1 20 17 21 17 1
309 1 308 -13 9 c-8 5 -25 8 -39 7 l-24 -3 -12 -25 c-6 -14 -17 -41 -24 -60
-31 -87 -75 -204 -116 -310 -25 -63 -50 -128 -56 -143 -6 -16 -21 -35 -32 -42
l-21 -14 -386 2 -386 2 -16 14 -17 13 0 467 0 466 8 13 8 13 164 -3 163 -3 23
-43 c13 -24 26 -53 30 -65 7 -24 18 -50 57 -137 13 -30 27 -67 31 -82 3 -15
13 -34 22 -42 l15 -16 24 0 c13 0 26 4 29 9 3 5 6 192 7 415 l1 407 -12 14
c-7 8 -18 15 -24 15 -7 0 -23 -11 -35 -24 l-23 -25 -52 -128 c-29 -70 -61
-146 -72 -168 l-19 -40 -161 -3 -161 -2 -12 13 -11 14 2 464 3 464 375 3 c206
1 384 0 396 -2 l20 -5 21 -53 c11 -29 48 -125 82 -213 34 -88 72 -183 86 -211
l23 -51 21 -6 21 -5 15 15 15 15 -2 296 -3 297 -800 3 -801 2 -12 -12z"/>
<path d="M55570 13065 l-12 -15 5 -14 6 -14 33 -10 c18 -6 64 -13 101 -17 l69
-7 19 -19 19 -19 0 -963 0 -963 -12 -12 c-7 -7 -24 -12 -39 -12 -34 0 -156
-28 -181 -41 -21 -11 -24 -34 -5 -46 l12 -8 370 -1 370 -2 17 9 c10 5 18 16
18 23 0 8 -6 19 -14 25 l-15 12 -100 17 c-55 10 -103 20 -106 24 -3 3 -6 212
-5 464 l0 459 14 10 13 10 149 -2 149 -2 43 -15 c24 -9 66 -30 93 -48 l50 -32
37 -55 c34 -52 68 -129 77 -176 2 -11 13 -81 24 -155 11 -74 27 -183 36 -242
9 -59 25 -133 35 -164 11 -31 31 -72 45 -90 l25 -32 57 -29 58 -28 115 0 115
0 66 32 66 32 46 50 47 50 -6 15 -6 16 -25 0 -25 0 -60 -40 -60 -40 -34 0 -34
0 -19 19 c-11 11 -26 30 -34 43 -20 32 -53 180 -72 323 -9 66 -21 139 -26 163
-5 23 -19 67 -30 97 l-20 54 -44 59 -43 59 -73 49 -74 49 -77 25 -78 25 0 12
0 11 43 7 c67 11 160 41 224 74 l58 29 56 59 c31 32 66 76 77 98 11 22 28 63
37 90 l16 50 6 95 6 95 -23 80 -22 80 -29 50 c-37 66 -102 129 -179 176 -46
28 -184 68 -306 89 l-121 20 -450 0 -451 0 -12 -15z m945 -86 c43 -11 92 -27
109 -36 49 -26 103 -72 130 -114 14 -21 35 -62 46 -91 l20 -53 7 -101 6 -100
-12 -84 c-7 -46 -22 -109 -33 -139 l-21 -56 -66 -65 -67 -66 -74 -22 -75 -22
-177 0 -177 0 -7 11 -7 11 1 465 c1 255 4 468 7 473 l6 10 153 0 152 0 79 -21z"/>
<path d="M40105 9731 c-38 -10 -85 -27 -102 -38 -37 -22 -77 -76 -87 -118 l-7
-28 7 -55 7 -56 45 -48 45 -48 26 -7 c32 -7 51 -21 51 -38 l0 -13 -49 -21
c-27 -11 -62 -32 -78 -45 -16 -14 -42 -43 -58 -66 l-29 -41 2 -85 1 -84 38
-57 38 -57 42 -29 41 -29 89 -19 c93 -20 133 -23 170 -13 l23 6 -6 9 -5 9 -40
0 -40 0 -42 21 c-23 12 -55 36 -71 53 -17 17 -39 49 -49 71 l-18 40 -6 60 -5
60 24 59 25 58 43 34 43 34 41 10 c23 6 47 13 54 15 l13 5 -3 17 -3 18 -63 17
c-35 9 -70 22 -78 29 -8 7 -27 33 -42 58 l-27 46 0 65 0 65 19 31 18 31 53 31
c29 18 63 32 75 32 l21 0 45 -30 44 -31 6 -25 7 -26 -22 -28 c-11 -16 -21 -39
-21 -50 l0 -21 31 -13 32 -13 19 5 20 5 19 31 20 31 -6 33 c-4 19 -11 44 -17
58 -6 13 -28 34 -48 48 l-38 25 -53 11 c-30 6 -67 13 -84 15 l-30 4 -70 -18z"/>
<path d="M43324 9718 c-22 -30 -62 -131 -71 -181 l-5 -28 25 -27 26 -27 39
-115 c22 -63 47 -133 55 -155 l15 -40 -9 -17 -10 -18 -110 0 -110 0 -26 26
c-14 14 -27 24 -28 22 -9 -9 -45 -102 -45 -116 0 -9 -7 -26 -15 -36 -8 -11
-15 -31 -15 -44 l0 -24 15 12 c8 7 19 29 25 49 6 20 19 47 29 61 l19 24 129 3
c70 2 137 1 149 -2 l21 -5 28 -72 c15 -40 36 -95 47 -121 l19 -48 -6 -18 -6
-19 -19 -5 c-11 -3 -20 -9 -20 -15 l0 -9 46 -7 c59 -8 182 -8 212 0 12 4 22
10 22 15 0 5 -16 15 -35 23 l-35 15 -19 43 c-10 24 -31 79 -45 123 -24 75 -49
147 -97 275 -11 30 -27 78 -35 105 -8 28 -21 64 -29 82 -8 17 -15 36 -15 42 0
6 -9 28 -20 48 -11 21 -20 46 -20 56 0 11 -6 31 -14 45 -7 15 -17 40 -22 56
-5 16 -14 31 -20 33 -6 2 -15 -2 -20 -9z"/>
<path d="M31655 9710 c-3 -5 -3 -14 0 -20 l6 -10 34 0 34 0 15 -16 16 -15 0
-408 0 -407 -12 -16 c-7 -9 -24 -18 -37 -20 -14 -2 -26 -8 -28 -15 l-4 -12 37
-7 37 -7 86 8 c47 5 154 8 237 7 l152 -2 46 21 c26 11 67 34 92 51 l45 30 38
51 c21 29 45 66 54 82 8 17 22 54 31 84 l16 53 0 98 0 97 -19 59 c-11 33 -29
77 -40 99 -12 22 -39 59 -61 82 -22 24 -59 55 -82 70 -24 15 -65 36 -93 47
l-50 20 -272 3 -271 4 -7 -11z m556 -48 c13 -10 37 -24 52 -32 16 -8 42 -31
57 -50 16 -20 36 -56 45 -81 9 -24 21 -66 25 -94 11 -64 11 -254 0 -325 -4
-30 -16 -76 -25 -102 l-17 -48 -57 -56 c-31 -31 -67 -60 -81 -66 l-25 -10
-128 -5 -127 -6 -20 18 -20 18 0 423 0 422 13 5 c6 3 73 6 148 6 l136 1 24
-18z"/>
<path d="M37864 9708 l-8 -12 10 -3 c5 -2 20 -9 34 -16 l25 -13 3 -149 c1 -83
0 -160 -3 -172 l-5 -23 -20 0 -20 0 0 -10 c0 -5 10 -29 23 -52 l22 -43 0 -145
0 -145 -23 -43 -22 -43 5 -10 c4 -5 12 -9 19 -9 7 0 23 -14 35 -31 l23 -32 66
7 c37 4 68 9 71 11 2 3 -4 14 -15 26 l-19 21 -1 440 -1 440 -14 9 -14 9 -82 0
-82 0 -7 -12z"/>
<path d="M38625 9710 c-3 -5 -3 -14 0 -20 l6 -10 33 0 32 0 12 -12 12 -12 0
-392 c0 -216 -3 -399 -6 -408 -3 -9 -24 -26 -45 -38 l-39 -22 0 -12 c0 -6 7
-15 16 -18 9 -3 53 -6 99 -6 l83 0 11 14 12 14 -23 16 c-12 9 -28 16 -35 16
-7 0 -17 8 -22 19 l-10 18 -2 356 c0 196 2 361 6 367 3 5 10 10 14 10 5 0 22
-42 39 -92 31 -93 93 -262 152 -413 17 -44 36 -93 42 -110 5 -16 16 -43 23
-60 7 -16 21 -54 31 -84 l19 -53 14 -6 14 -5 24 27 23 27 0 20 c0 11 9 37 20
59 11 22 20 50 20 63 l0 24 20 18 20 18 0 29 0 28 20 20 20 20 0 26 0 26 20
25 20 26 0 22 0 22 20 26 20 25 0 25 0 24 20 26 c11 14 20 34 20 46 0 11 9 35
20 53 11 18 20 43 20 56 l0 22 15 0 15 0 0 -17 c1 -10 1 -175 0 -366 0 -191
-3 -354 -7 -362 l-5 -15 -31 -8 c-17 -4 -32 -13 -34 -19 l-4 -10 38 -7 c48 -7
201 -8 231 0 12 4 22 10 22 15 0 5 -16 15 -35 23 l-35 15 0 23 c0 13 -1 199
-1 415 -1 215 2 396 5 402 3 5 21 13 39 16 17 4 36 9 40 12 l8 5 -12 14 -11
14 -92 0 c-50 0 -96 -4 -102 -8 -14 -9 -44 -67 -44 -84 0 -7 -9 -30 -20 -51
-11 -20 -20 -45 -20 -54 0 -10 -9 -31 -20 -48 -11 -16 -20 -38 -20 -48 0 -11
-9 -30 -20 -44 l-20 -26 0 -22 0 -22 -20 -26 c-11 -14 -20 -33 -20 -44 0 -10
-9 -31 -20 -48 -11 -16 -20 -40 -20 -53 0 -13 -9 -40 -20 -60 -10 -20 -21 -45
-24 -54 l-5 -18 -21 0 -20 0 -9 23 c-37 93 -135 349 -165 427 -19 52 -47 124
-61 160 l-27 65 -20 18 -20 17 -109 0 -108 0 -6 -10z"/>
<path d="M41255 9710 c-4 -6 -10 -23 -15 -38 -5 -15 -22 -63 -39 -107 -17 -44
-31 -91 -30 -105 l0 -25 16 23 c8 12 21 22 28 22 l13 0 13 -37 c6 -21 15 -43
20 -48 4 -6 12 -29 18 -50 15 -59 51 -159 62 -169 5 -6 9 -20 9 -32 l0 -22
-16 -6 c-9 -3 -62 -6 -119 -6 l-103 0 -23 19 -23 19 12 27 c13 29 10 41 -7 30
-6 -3 -11 -18 -11 -32 l0 -25 -20 -25 -20 -26 0 -22 0 -23 35 18 36 18 127 0
126 -1 28 -28 28 -27 0 -24 c0 -13 6 -35 14 -50 8 -15 22 -53 31 -85 l17 -57
-10 -4 c-5 -1 -17 -9 -27 -16 l-19 -13 23 -13 23 -12 108 4 109 3 12 12 12 12
-40 16 -40 16 -13 42 c-6 23 -17 56 -24 72 -7 17 -25 68 -40 115 -15 47 -34
99 -41 115 -16 38 -51 134 -58 160 -3 11 -18 52 -32 90 -15 39 -33 90 -40 115
-25 81 -57 165 -67 178 -13 15 -34 16 -43 2z"/>
<path d="M43872 9712 l-13 -9 13 -10 c7 -6 30 -13 51 -17 l37 -7 1 -342 c1
-188 1 -378 -1 -422 l-2 -80 -10 -12 c-5 -6 -19 -13 -30 -15 -12 -2 -23 -8
-25 -14 l-4 -11 47 -7 c57 -7 178 -6 219 3 17 3 30 10 30 16 0 5 -15 12 -34
16 -18 4 -37 13 -42 21 l-9 13 0 412 0 412 12 7 c7 4 28 10 48 14 l35 5 0 15
0 15 -155 2 -155 3 -13 -8z"/>
<path d="M45515 9710 c-10 -16 4 -30 31 -30 14 0 34 -5 45 -10 l19 -11 0 -412
0 -412 -8 -12 c-4 -6 -20 -16 -35 -22 -15 -6 -27 -15 -27 -19 0 -5 15 -12 33
-14 17 -3 138 -3 267 -1 l235 4 60 21 60 22 67 67 68 66 31 67 32 68 8 86 9
86 -9 72 -9 72 -35 74 -36 73 -48 47 c-48 47 -132 98 -162 98 -9 0 -25 7 -35
15 l-20 15 -267 0 -268 0 -6 -10z m575 -60 c25 -16 57 -42 73 -57 15 -16 39
-52 55 -82 l27 -54 0 -217 0 -217 -28 -54 -27 -55 -53 -52 -52 -52 -54 -10
c-30 -5 -98 -10 -152 -10 l-98 0 -15 22 -16 22 0 417 0 416 7 6 c3 4 70 7 147
7 l141 0 45 -30z"/>
<path d="M32793 9670 c-12 -5 -29 -20 -37 -33 l-16 -24 6 -32 7 -32 21 -14 20
-15 33 0 33 0 20 20 20 20 0 35 0 36 -25 24 -24 25 -18 -1 c-10 0 -28 -4 -40
-9z"/>
<path d="M33835 9493 c-11 -3 -26 -10 -32 -15 l-13 -10 0 -32 0 -32 -16 -22
-16 -23 14 -16 13 -16 5 -241 5 -242 18 -27 c9 -15 29 -34 43 -44 l26 -17 61
1 62 0 30 12 30 12 -18 10 c-9 6 -21 7 -27 4 -5 -3 -25 1 -44 9 l-34 14 -13
24 -13 23 1 226 0 225 11 21 11 20 -9 29 c-5 16 -12 47 -17 69 l-8 40 -25 2
c-14 0 -34 -1 -45 -4z"/>
<path d="M47381 9487 l-25 -12 -8 -34 c-5 -18 -16 -44 -25 -57 l-15 -24 16
-25 16 -25 0 -202 0 -203 16 -47 16 -48 25 -20 c14 -11 43 -25 65 -32 l39 -12
55 15 c30 8 56 19 57 24 l2 10 -35 1 c-19 1 -46 4 -58 8 l-24 8 -14 34 -14 33
0 214 0 214 21 27 20 26 -20 26 -21 27 0 33 0 33 -19 11 c-11 5 -26 10 -33 10
-7 0 -24 -6 -37 -13z"/>
<path d="M43216 9441 c-4 -7 -5 -15 -2 -18 9 -9 19 4 14 18 l-4 13 -8 -13z"/>
<path d="M34515 9391 c-12 -5 -26 -16 -33 -24 l-13 -15 13 -9 c7 -4 22 -13 33
-18 l20 -11 11 -34 c6 -19 18 -39 26 -44 l15 -9 26 7 c14 3 33 13 41 22 l16
15 0 34 0 33 -31 26 c-17 14 -38 26 -47 26 -9 0 -26 2 -37 5 -11 2 -29 0 -40
-4z"/>
<path d="M41138 9390 c-24 -62 -38 -109 -37 -125 l0 -20 25 55 25 55 -4 25 -3
25 -6 -15z"/>
<path d="M37091 9376 l-11 -13 29 -27 c16 -16 35 -41 41 -57 l12 -28 -4 -43
c-3 -24 -6 -50 -9 -58 l-4 -15 75 0 75 0 3 23 c2 12 -4 44 -12 70 l-16 48 -38
35 c-52 49 -66 59 -101 69 l-30 8 -10 -12z"/>
<path d="M40611 9364 c-12 -15 -21 -35 -21 -44 0 -10 9 -28 19 -41 l19 -24 37
18 36 17 10 -5 c5 -4 9 -16 9 -29 l0 -23 -20 -18 -20 -18 -72 1 c-40 1 -107 7
-149 13 l-75 11 -45 -12 c-24 -7 -55 -18 -69 -25 l-26 -13 -22 -45 -22 -44 0
-47 0 -47 15 -29 c8 -16 24 -34 34 -40 29 -15 68 -12 96 6 l25 16 0 33 0 34
-16 15 c-8 9 -22 16 -29 16 -8 0 -25 -5 -39 -11 l-25 -12 -16 13 c-8 7 -15 19
-15 26 l0 14 33 21 32 20 62 -3 62 -4 37 -26 37 -27 21 15 20 14 55 0 54 0 36
22 c20 13 46 34 58 48 l22 25 1 78 0 79 -29 29 -29 29 -36 0 -35 0 -20 -26z"/>
<path d="M46855 9380 l-6 -10 15 0 c9 0 16 5 16 10 0 6 -4 10 -9 10 -6 0 -13
-4 -16 -10z"/>
<path d="M32750 9370 l-15 -9 23 -30 22 -30 0 -228 0 -228 -16 -30 -15 -29 18
-14 18 -14 79 6 c43 3 81 8 84 10 2 3 -5 17 -17 32 l-21 27 0 257 0 257 -18
16 -19 17 -54 0 c-30 0 -61 -5 -69 -10z"/>
<path d="M34245 9366 l-18 -13 16 -24 17 -23 0 -237 0 -236 -21 -27 -20 -26
18 -8 c10 -4 57 -7 105 -7 l87 0 12 12 11 11 -29 14 -28 13 -3 209 -2 208 22
46 23 45 -13 5 c-7 2 -26 15 -41 28 l-29 24 -44 0 -44 0 -19 -14z"/>
<path d="M34945 9361 l-40 -18 -41 -45 -41 -45 -23 -59 -22 -59 5 -85 4 -85
21 -41 c12 -23 33 -55 47 -72 14 -17 50 -44 81 -62 l55 -31 21 7 21 6 -31 29
c-17 16 -43 49 -56 72 l-25 42 -7 90 -7 90 26 25 25 24 -21 28 -20 27 12 40
11 40 40 42 40 43 -13 8 c-6 4 -14 8 -17 8 -3 0 -23 -9 -45 -19z"/>
<path d="M35145 9371 l-7 -12 30 -33 29 -34 7 -37 7 -37 -6 -29 -7 -29 -16 -9
-16 -9 44 -7 c25 -4 63 -5 84 -3 l39 3 10 17 11 16 -14 43 c-8 24 -28 62 -45
83 -32 42 -72 70 -116 81 l-27 7 -7 -11z"/>
<path d="M35800 9371 c0 -6 7 -23 16 -36 l16 -24 -7 -39 -6 -38 19 -24 20 -24
25 11 c14 7 33 24 43 37 l16 26 -6 25 c-4 14 -19 39 -34 55 l-27 31 -37 6 -38
6 0 -12z"/>
<path d="M36425 9370 l-6 -9 16 -31 15 -30 -6 -25 c-3 -14 -3 -36 0 -49 l6
-24 19 -5 19 -5 31 19 30 18 7 25 6 24 -17 31 -16 32 -32 19 c-35 22 -62 25
-72 10z"/>
<path d="M37610 9364 c-19 -8 -50 -29 -68 -47 -19 -18 -42 -48 -52 -67 -10
-19 -23 -68 -30 -109 l-12 -73 12 -62 c6 -33 21 -82 32 -109 l21 -47 35 -31
c41 -36 90 -59 127 -59 l25 0 0 14 0 15 -19 6 c-11 3 -31 21 -45 40 l-26 34
-10 52 -10 52 0 124 0 124 25 48 24 49 31 22 c16 12 30 26 30 31 l0 9 -27 0
c-16 -1 -44 -8 -63 -16z"/>
<path d="M46679 9355 l-46 -24 -17 -35 c-9 -18 -16 -45 -16 -59 l0 -25 18 -20
c9 -12 28 -24 42 -27 l26 -6 27 21 27 21 0 24 c0 13 -5 36 -10 50 l-10 27 30
28 c16 15 30 33 30 39 l0 11 -27 0 -28 -1 -46 -24z"/>
<path d="M46913 9374 l-12 -5 6 -17 c3 -9 15 -27 27 -40 l21 -23 3 -72 3 -72
-10 -15 -10 -14 -74 2 -74 3 -63 -21 -62 -21 -39 -31 -38 -30 -10 -31 c-6 -16
-11 -52 -11 -79 l0 -49 15 -29 c8 -16 29 -39 47 -51 l32 -23 85 0 86 0 37 24
c37 25 56 55 43 68 l-6 7 -39 -23 -39 -22 -26 0 c-15 0 -36 5 -48 11 -12 6
-30 21 -39 33 l-18 21 0 42 0 42 16 33 16 33 35 22 34 23 67 10 66 11 14 -18
14 -18 -5 -65 -5 -65 -17 -32 -16 -33 6 -10 c3 -5 11 -10 17 -10 6 0 27 -19
48 -42 l38 -43 44 0 45 0 17 14 17 14 -33 27 -33 28 -5 218 -5 219 -18 30
c-11 17 -33 41 -51 53 l-32 22 -25 -1 c-13 0 -29 -3 -36 -5z"/>
<path d="M47879 9360 c-20 -11 -48 -33 -63 -50 l-26 -32 0 -31 c0 -18 6 -39
13 -48 7 -9 22 -21 34 -28 l23 -12 30 16 30 15 6 24 6 24 -11 20 c-6 12 -11
25 -11 31 0 6 16 25 35 42 l34 32 -5 8 c-9 15 -57 9 -95 -11z"/>
<path d="M48060 9376 c0 -2 16 -20 35 -39 l35 -35 2 -28 c3 -55 -4 -139 -12
-148 l-8 -8 -84 -2 -84 -1 -69 -35 -70 -35 -22 -34 -23 -34 0 -66 0 -66 33
-38 32 -37 57 -11 57 -11 44 6 45 7 45 39 c25 22 52 40 61 40 l15 0 15 -29 15
-28 35 -17 c19 -9 44 -16 55 -16 l22 0 5 15 6 14 -16 23 -16 22 0 206 0 205
-25 52 -24 53 -33 20 -33 20 -47 0 c-27 0 -48 -2 -48 -4z m65 -309 l15 -24 -6
-62 -7 -63 -21 -31 c-12 -17 -37 -42 -55 -54 l-34 -23 -34 0 -35 0 -30 31 -31
30 7 57 6 57 18 24 c10 14 29 33 43 43 21 16 84 34 131 37 l18 1 15 -23z"/>
<path d="M33420 9358 c0 -7 7 -22 15 -33 l15 -19 -6 -32 -6 -32 12 -22 11 -21
32 3 31 3 19 32 19 32 -7 20 c-3 11 -19 34 -35 50 l-28 31 -36 0 -36 0 0 -12z"/>
<path d="M36859 9337 l-43 -32 -32 -54 -33 -54 -12 -67 -12 -66 12 -54 c6 -30
22 -74 34 -98 l22 -44 48 -44 49 -44 39 -10 39 -11 16 9 16 9 -33 24 c-19 13
-42 33 -51 44 -10 11 -25 42 -33 69 l-15 50 0 68 0 68 20 20 20 20 28 1 27 1
-31 7 c-17 4 -36 11 -42 15 l-12 7 0 30 c0 17 7 44 16 62 9 18 32 49 52 70
l36 37 -41 0 -41 0 -43 -33z"/>
<path d="M37810 9363 c8 -3 23 -14 34 -25 l18 -19 7 6 6 7 -24 19 c-13 10 -31
19 -40 18 l-16 -1 15 -5z"/>
<path d="M43177 9333 c-3 -16 -4 -30 -2 -32 2 -1 8 0 14 4 6 3 11 17 11 31 l0
24 -9 0 c-5 0 -11 -12 -14 -27z"/>
<path d="M33154 9298 l-29 -43 0 -45 0 -45 14 -33 14 -34 36 -22 c20 -13 83
-38 141 -56 58 -18 119 -41 136 -51 l31 -19 11 -25 c7 -14 12 -37 12 -50 l0
-25 16 0 15 0 15 37 16 37 -7 45 c-4 25 -12 55 -17 66 -6 11 -20 30 -31 42
l-20 22 -66 25 c-36 14 -84 30 -106 35 -69 17 -118 38 -132 57 l-14 19 6 35
c3 19 8 43 11 53 l5 17 -14 0 -14 0 -29 -42z"/>
<path d="M36151 9294 c-11 -14 -23 -41 -27 -59 l-6 -34 17 -51 17 -51 47 -29
c25 -16 54 -30 64 -30 10 0 39 -9 65 -19 26 -11 60 -22 75 -26 16 -3 46 -17
67 -30 l38 -24 7 -21 7 -22 -6 -33 -7 -34 -37 -31 -37 -30 16 0 c9 0 37 16 62
36 l47 36 10 37 c5 20 10 47 10 61 0 14 -5 42 -11 63 l-10 38 -27 30 -27 29
-55 21 c-30 11 -77 26 -105 34 -68 19 -120 41 -139 60 l-16 16 0 45 0 44 -9 0
c-5 0 -19 -12 -30 -26z"/>
<path d="M35532 9297 c-6 -7 -16 -33 -21 -58 l-10 -46 8 -30 c5 -17 14 -39 20
-50 6 -12 25 -29 43 -40 18 -10 80 -34 138 -53 102 -33 167 -63 182 -85 13
-17 9 -63 -9 -100 l-17 -35 -19 -6 -19 -6 10 -10 11 -11 28 22 c15 12 40 38
56 58 l27 37 0 61 0 62 -29 40 c-33 45 -67 73 -91 73 -8 0 -37 9 -65 19 -27
11 -77 28 -110 38 -33 10 -68 26 -77 36 l-18 17 0 40 0 40 -14 0 c-7 0 -18 -6
-24 -13z"/>
<path d="M43147 9237 c-4 -10 -7 -24 -7 -30 l0 -11 11 11 11 11 -4 18 -4 19
-7 -18z"/>
<path d="M35048 9143 c18 -2 45 -2 60 0 l27 4 -60 0 -60 0 33 -4z"/>
<path d="M37033 9143 c15 -2 37 -2 50 0 l22 4 -50 0 -50 0 28 -4z"/>
<path d="M42184 9108 l-7 -11 19 -14 19 -14 92 3 92 3 13 13 13 13 -15 9 -15
10 -102 0 -102 0 -7 -12z"/>
<path d="M44730 9100 l0 -19 35 -7 c19 -3 70 -5 114 -3 l80 4 12 12 11 11 -6
11 -7 11 -120 0 -119 0 0 -20z"/>
<path d="M40980 8990 l-11 -20 15 -6 c8 -3 20 -3 26 1 5 3 10 15 10 26 l0 19
-15 0 -14 0 -11 -20z"/>
<path d="M33147 8950 l-27 -21 0 -49 0 -49 28 -26 c15 -15 37 -31 50 -36 30
-12 79 -12 87 1 l6 9 -27 41 -27 41 10 34 11 34 -12 15 c-6 9 -25 18 -41 22
l-30 6 -28 -22z"/>
<path d="M35543 8960 c-12 -5 -26 -18 -32 -29 -6 -11 -11 -35 -11 -53 l0 -34
15 -21 c8 -12 30 -31 49 -42 l33 -21 32 0 32 0 5 15 6 15 -26 31 c-14 17 -26
37 -26 44 0 8 5 26 12 40 l12 26 -15 13 c-8 7 -25 16 -39 19 l-25 5 -22 -8z"/>
<path d="M36160 8957 l-25 -13 -13 -27 -13 -28 11 -33 c6 -18 21 -42 33 -54
26 -24 69 -42 102 -42 13 0 27 4 30 10 l6 9 -26 39 -25 38 9 29 c4 17 6 37 3
45 -6 20 -32 40 -51 40 -9 0 -27 -6 -41 -13z"/>
<path d="M35307 8902 c-15 -16 -27 -32 -27 -36 0 -13 -54 -60 -86 -76 l-29
-13 18 -5 18 -4 18 16 c10 9 22 16 27 16 15 0 69 61 83 94 6 16 10 30 8 32 -2
2 -16 -9 -30 -24z"/>
<path d="M37244 8896 c-3 -13 -17 -34 -30 -47 -13 -12 -24 -28 -24 -35 l0 -13
-32 -3 -31 -3 -5 -12 -4 -13 30 0 30 0 6 15 c3 8 12 15 19 15 l14 0 37 47 c20
25 36 52 36 60 l0 13 -20 0 -20 0 -6 -24z"/>
<path d="M40961 8898 c-11 -28 -45 -60 -88 -82 -17 -9 -35 -21 -39 -27 l-7
-11 14 -9 14 -9 82 0 c45 0 88 3 97 6 9 3 16 12 16 19 l0 13 -36 21 -36 22 5
34 6 35 -10 5 -9 6 -9 -23z"/>
<path d="M43003 8883 l-18 -37 -45 -24 -45 -23 0 -17 0 -17 90 -3 90 -3 19 14
18 13 -42 34 -42 33 7 33 6 34 -10 0 c-5 0 -18 -17 -28 -37z"/>
<path d="M40456 8894 c-3 -9 -3 -21 0 -26 l7 -11 14 18 c7 11 13 22 13 27 0 4
-6 8 -14 8 -8 0 -17 -7 -20 -16z"/>
<path d="M40394 8805 l-39 -35 21 0 20 0 27 28 c15 15 27 31 27 35 0 15 -18 6
-56 -28z"/>
<path d="M33479 8803 l-24 -27 33 23 c17 12 32 24 32 27 0 2 -4 4 -8 4 -5 0
-19 -12 -33 -27z"/>
<path d="M37827 8794 c-16 -9 -27 -18 -24 -20 7 -8 57 15 57 26 0 5 -1 10 -2
10 -2 -1 -16 -8 -31 -16z"/>
<path d="M48330 8795 c0 -8 5 -15 10 -15 6 0 10 7 10 15 0 8 -4 15 -10 15 -5
0 -10 -7 -10 -15z"/>
</g>
</svg>
